<svg width="68" height="72" viewBox="0 0 68 72" fill="none" xmlns="http://www.w3.org/2000/svg">
<path d="M12.5418 60.9523L7.76904 4.48157H60.231L55.4519 60.9433L33.9682 67.2243L12.5418 60.9523Z" fill="#1572B6"/>
<path d="M34 62.4246L51.3613 57.3491L55.4455 9.09998H34V62.4246Z" fill="#33A9DC"/>
<path d="M34 29.5586H42.6912L43.2905 22.4664H34V15.54H50.4688L50.3115 17.3977L48.6986 36.4849H34V29.5586Z" fill="white"/>
<path d="M34.0404 47.5455L34.0106 47.5545L26.6964 45.4705L26.2289 39.9469H19.635L20.5551 50.8216L34.0085 54.7609L34.0404 54.7519V47.5455Z" fill="#EBEBEB"/>
<path d="M42.1325 36.1914L41.342 45.4661L34.0171 47.5501V54.7565L47.4811 50.8217L47.581 49.652L48.7221 36.1914H42.1325Z" fill="white"/>
<path d="M34.0235 15.54V22.4664H18.1582L18.0265 20.909L17.7268 17.3977L17.5696 15.54H34.0235V15.54ZM34.0001 29.5586V36.4849H26.7772L26.6455 34.9275L26.348 31.4162L26.1907 29.5586H34.0001V29.5586Z" fill="#EBEBEB"/>
</svg>
